<svg xmlns="http://www.w3.org/2000/svg" version="1.1" xmlns:xlink="http://www.w3.org/1999/xlink" xmlns:svgjs="http://svgjs.dev/svgjs" width="128" height="128" viewBox="0 0 128 128">
<g transform="matrix(0.8046875,0,0,0.8046875,12.550987927062216,9.55829967105263)">
<svg viewBox="0 0 89 95" data-background-color="#ffffff" preserveAspectRatio="xMidYMid meet" height="136" width="128" xmlns="http://www.w3.org/2000/svg" xmlns:xlink="http://www.w3.org/1999/xlink"><g id="tight-bounds" transform="matrix(1,0,0,1,-0.044057529209098334,-0.24049999999999727)"><svg viewBox="0 0 89.08811505841818 95.48099999999998" height="95.48099999999998" width="89.08811505841818"><g><svg viewBox="0 0 89.08811505841818 95.48099999999998" height="95.48099999999998" width="89.08811505841818"><g><svg viewBox="0 0 89.08811505841818 95.48099999999998" height="95.48099999999998" width="89.08811505841818"><g id="textblocktransform"><svg viewBox="0 0 89.08811505841818 95.48099999999998" height="95.48099999999998" width="89.08811505841818" id="textblock"><g><svg viewBox="0 0 89.08811505841818 95.48099999999998" height="95.48099999999998" width="89.08811505841818"><g><svg viewBox="0 0 89.08811505841818 95.48099999999998" height="95.48099999999998" width="89.08811505841818"><g><svg xmlns="http://www.w3.org/2000/svg" xmlns:xlink="http://www.w3.org/1999/xlink" version="1.1" x="0" y="0" viewBox="9.295 5.407 84.491 90.55399999999999" enable-background="new 0 0 100 100" xml:space="preserve" height="95.48099999999998" width="89.08811505841818" class="icon-icon-0" data-fill-palette-color="accent" id="icon-0"><path d="M56.675 14.335L51.347 28.38 35.612 47.802c-0.015 0.019-0.023 0.041-0.035 0.061-0.01 0.017-0.022 0.031-0.03 0.049 0 0.002 0 0.003-0.001 0.005-0.011 0.026-0.015 0.054-0.02 0.083-0.003 0.017-0.009 0.034-0.011 0.051-0.001 0.022 0.003 0.045 0.006 0.068 0.001 0.022 0 0.045 0.006 0.066 0.004 0.017 0.014 0.034 0.02 0.05 0.009 0.025 0.018 0.052 0.033 0.077 0 0.001 0 0.002 0.002 0.003l5.201 8.322-10.514 9.117-7.765-5.938 32.639-48.354L56.675 14.335z" fill="#ff7f12" data-fill-palette-color="accent"></path><polygon points="52.222,28.574 56.484,17.336 68.274,42.875 63.174,49.354 " fill="#ff7f12" data-fill-palette-color="accent"></polygon><polygon points="40.592,57.975 39.02,64.327 36.324,66.125 31.421,65.928 " fill="#ff7f12" data-fill-palette-color="accent"></polygon><path d="M30.707 66.786l5.725 0.23c0.006 0 0.012 0 0.018 0 0.088 0 0.173-0.027 0.246-0.075l2.958-1.973c0.092-0.062 0.158-0.154 0.184-0.263l1.699-6.86 22.487 35.974-12.7-13.984c-0.086-0.094-0.209-0.136-0.333-0.145-0.126 0.001-0.247 0.057-0.33 0.152l-2.815 3.25-5.352-8.376c-0.119-0.187-0.357-0.256-0.559-0.164l-6.269 2.894-5.413-1.353L30.707 66.786z" fill="#ff7f12" data-fill-palette-color="accent"></path><polygon points="43.043,79.248 42.771,76.796 47.339,83.947 47.196,86.099 " fill="#ff7f12" data-fill-palette-color="accent"></polygon><polygon points="48.223,84.009 50.553,81.321 50.553,83.895 48.065,86.383 " fill="#ff7f12" data-fill-palette-color="accent"></polygon><polygon points="51.438,81.28 60.205,90.931 51.438,83.865 " fill="#ff7f12" data-fill-palette-color="accent"></polygon><polygon points="35.992,78.272 41.748,75.615 42.15,79.23 37.322,84.058 32.74,82.392 " fill="#ff7f12" data-fill-palette-color="accent"></polygon><path d="M37.852 84.781l4.675-4.675 4.639 7.653c0.07 0.115 0.19 0.193 0.326 0.21 0.018 0.002 0.036 0.003 0.053 0.003 0.117 0 0.229-0.046 0.313-0.13l3.169-3.17 13.764 11.094-21.962 0.16-5.422-8.252L37.852 84.781z" fill="#ff7f12" data-fill-palette-color="accent"></path><polygon points="37.922,50.39 45.463,56.988 60.922,87.183 " fill="#ff7f12" data-fill-palette-color="accent"></polygon><polygon points="45.981,56.265 37.231,48.608 61.856,50.205 58.622,56.025 " fill="#ff7f12" data-fill-palette-color="accent"></polygon><polygon points="36.84,47.694 51.656,29.405 62.163,49.336 " fill="#ff7f12" data-fill-palette-color="accent"></polygon><polygon points="77.251,54.117 80.633,69.089 80.684,82.57 63.953,50.832 " fill="#ff7f12" data-fill-palette-color="accent"></polygon><polygon points="89.538,58.943 89.648,63.558 82.838,67.505 " fill="#ff7f12" data-fill-palette-color="accent"></polygon><polygon points="89.448,57.62 81.302,68.03 78.101,53.85 84.648,44.818 " fill="#ff7f12" data-fill-palette-color="accent"></polygon><path d="M84.188 43.943L77.44 53.25l-13.567-3.351 6.456-8.2c0.056-0.07 0.088-0.156 0.094-0.245l0.217-3.25 8.271 0.69L84.188 43.943z" fill="#ff7f12" data-fill-palette-color="accent"></path><polygon points="78.746,37.991 73.574,37.56 79.033,36.555 " fill="#ff7f12" data-fill-palette-color="accent"></polygon><polygon points="78.647,35.725 71.81,36.984 76.129,33.385 " fill="#ff7f12" data-fill-palette-color="accent"></polygon><path d="M75.599 32.673l-5.655 4.712c-0.093 0.078-0.149 0.19-0.159 0.311l-0.236 3.562-0.658 0.836L56.925 16.175l0.619-1.633 6.396-6.852L75.599 32.673z" fill="#ff7f12" data-fill-palette-color="accent"></path><polygon points="59.597,5.407 63.315,7.06 57.259,13.548 53.858,7.172 " fill="#ff7f12" data-fill-palette-color="accent"></polygon><path d="M14.573 55.545c0.011-0.011 0.021-0.021 0.03-0.032l6.41-7.835 1.642 1.026c0.204 0.128 0.471 0.069 0.604-0.131l25.473-38.455 1.922 0.427c0.167 0.038 0.342-0.025 0.446-0.162l2.047-2.66 1.523 2.857-33.014 48.91-11.91 0.883L14.573 55.545z" fill="#ff7f12" data-fill-palette-color="accent"></path><path d="M30.353 88.202c-0.031-0.03-0.066-0.057-0.104-0.077l-3.564-1.9-1.911-4.299c-0.054-0.122-0.16-0.212-0.289-0.248l-5.237-1.428L9.295 61.294l12.473-0.924 8.064 6.167-0.482 9.877c-0.01 0.211 0.13 0.399 0.335 0.451l5.252 1.312-3.273 4.146c-0.088 0.111-0.117 0.259-0.078 0.396 0.039 0.137 0.141 0.247 0.274 0.295l5.082 1.849-0.437 2.845c-0.017 0.109 0.007 0.22 0.067 0.312l5.201 7.915-3.662 0.026L30.353 88.202z" fill="#ff7f12" data-fill-palette-color="accent"></path><path d="M71.492 95.718l-5.187 0.037L46.537 57.141l12.358-0.233c0.157-0.003 0.302-0.09 0.379-0.228l3.47-6.245 17.863 33.891L71.492 95.718z" fill="#ff7f12" data-fill-palette-color="accent"></path><polygon points="81.572,83.117 81.52,69.293 90.037,64.357 93.786,67.85 " fill="#ff7f12" data-fill-palette-color="accent"></polygon></svg></g></svg></g></svg></g></svg></g></svg></g></svg></g><defs></defs></svg>
<rect width="89.08811505841818" height="95.48099999999998" fill="none" stroke="none" visibility="hidden"></rect></g></svg></g></svg>